<svg width="719" height="471" viewBox="0 0 719 471" fill="none" xmlns="http://www.w3.org/2000/svg">
<path d="M41.6729 275.883C41.6729 275.883 49.5798 282.454 37.8865 283.233H16.616C16.616 283.233 7.98524 284.236 2.58407 274.992C2.58407 274.992 -1.98186 268.311 1.02497 262.742L21.3489 203.942C21.3489 203.942 22.1285 197.706 23.4649 195.534L28.4763 186.903C28.4763 186.903 29.7013 184.119 33.7104 188.852C33.7104 188.852 37.9422 196.091 44.3457 197.316C44.3457 197.316 50.6934 196.314 48.0764 200.935C48.0764 200.935 46.3502 202.661 48.4661 204.722C48.4661 204.722 52.0298 208.953 56.9298 206.893C56.9298 206.893 60.3264 205.223 58.8787 203.107C58.8787 203.107 58.5446 202.884 58.0991 202.55C57.3753 201.938 56.4844 201.436 55.5378 201.269C54.4798 201.047 53.0321 200.434 52.0855 198.708C52.0855 198.708 50.5264 194.699 49.5798 193.864C49.5798 193.864 49.3571 192.917 46.4616 193.084C46.4616 193.084 43.6775 193.808 41.6729 190.745C41.6729 190.745 41.0604 189.743 41.5616 187.906C41.5616 187.906 42.2297 185.456 39.1672 184.286C39.1672 184.286 36.9956 184.398 37.2183 182.449C37.2183 182.449 37.4968 180.277 36.1604 179.72C36.1604 179.72 32.5967 178.273 32.5967 175.99C32.5967 175.99 32.8195 180.723 30.0354 182.56C30.0354 182.56 27.474 183.674 28.699 180.89C28.699 180.89 30.091 178.774 30.1467 176.546C30.1467 176.546 30.2581 174.542 33.0422 172.983C33.0422 172.983 35.2695 171.368 35.7149 174.542C35.7149 174.542 35.6592 177.771 39.724 173.094C39.724 173.094 40.1695 169.531 44.2343 168.138C44.2343 168.138 53.5889 168.64 51.8071 160.844C51.8071 160.844 49.6911 158.394 52.9207 155.554L56.9298 152.269C56.9298 152.269 58.6003 150.097 61.4401 152.77C61.4401 152.77 64.1128 150.654 69.4583 151.1C69.4583 151.1 72.7992 149.541 75.639 151.044C75.639 151.044 78.2004 152.715 79.6481 149.374C79.6481 149.374 78.6458 146.701 80.7061 145.086C80.7061 145.086 82.989 143.694 83.5459 141.801C83.5459 141.801 83.9913 140.242 85.105 141.522C85.105 141.522 87.4993 142.97 88.7243 141.3C88.7243 141.3 90.172 139.685 84.9379 138.349C84.9379 138.349 82.7663 138.85 82.5436 135.676C82.5436 135.676 82.4879 131.277 75.6947 132.279C75.6947 132.279 72.2981 132.558 70.9617 134.674C70.9617 134.674 69.8481 136.567 67.5094 136.622C67.5094 136.622 63.556 139.017 63.3333 135.397C63.3333 135.397 63.0548 133.114 60.5491 136.567C60.5491 136.567 56.8741 144.919 54.7025 146.367C54.7025 146.367 54.7582 151.044 51.9184 153.104C51.9184 153.104 49.6355 155.276 48.0207 154.218C48.0207 154.218 43.4547 165.243 39.6684 167.359C39.6684 167.359 38.6104 168.194 37.9422 167.693C37.9422 167.693 36.6058 167.248 38.7774 164.686C38.7774 164.686 42.2297 160.51 45.682 151.434C45.682 151.434 45.7934 149.93 48.1877 149.318C48.1877 149.318 48.3548 146.812 50.5821 147.48C50.5821 147.48 51.1946 147.926 52.6423 145.921C52.6423 145.921 57.3753 138.014 58.3219 134.618C58.3219 134.618 58.7116 131.722 60.4378 130.275C60.4378 130.275 65.2265 127.936 65.5049 124.038C65.5049 124.038 65.2265 122.201 66.173 120.809C66.173 120.809 64.948 114.962 67.0083 112.846C67.0083 112.846 66.0617 108.781 68.4003 106.276C68.4003 106.276 66.006 101.821 69.0685 99.9836L71.1844 98.3131C71.1844 98.3131 71.2958 95.3063 73.5231 95.529C73.5231 95.529 74.6367 95.4177 74.9151 97.4779C74.9151 97.4779 75.5833 99.2597 77.0311 96.3086C77.0311 96.3086 76.3629 92.4665 80.0379 93.9699C80.0379 93.9699 81.2629 95.0279 81.6527 92.1881C81.6527 92.1881 81.9868 90.7404 80.9288 90.462C80.9288 90.462 79.314 90.0165 79.9822 88.9029C79.9822 88.9029 80.2606 87.9006 82.0981 88.2347C82.0981 88.2347 84.1027 88.5131 82.989 86.6199C82.989 86.6199 80.1493 84.8381 82.655 82.1653C82.655 82.1653 82.822 78.6573 85.0493 77.9892C85.0493 77.9892 86.8311 77.2653 85.1607 75.6505C85.1607 75.6505 82.9334 74.0914 84.4925 72.1425C84.4925 72.1425 85.8845 68.6346 87.9448 68.3562C87.9448 68.3562 88.0004 66.3516 90.2834 65.3493C90.2834 65.3493 93.1232 64.2357 96.0187 65.3493C96.0187 65.3493 96.0743 63.2891 98.413 62.0641C98.413 62.0641 100.64 60.7277 102.199 62.7323C102.199 62.7323 103.313 63.5118 103.48 61.6186C103.48 61.6186 102.701 59.5584 106.376 58.4447C106.376 58.4447 109.16 57.7209 111.944 58.4447C111.944 58.4447 115.674 59.5584 118.459 56.1061L137.836 37.898C137.836 37.898 149.084 27.1514 159.274 31.0491C159.274 31.0491 161.501 32.6082 156.991 35.1696C156.991 35.1696 153.538 36.2833 155.821 39.3458C155.821 39.3458 158.939 40.4037 159.83 41.5174C159.83 41.5174 162.503 43.6333 161.222 39.3458C161.222 39.3458 158.717 36.2276 162.837 35.7264C162.837 35.7264 165.566 35.6708 167.292 33.7219C167.292 33.7219 168.962 31.8287 168.684 34.8355C168.684 34.8355 168.684 37.8424 164.73 40.6821C164.73 40.6821 163.171 42.0185 164.786 43.8003C164.786 43.8003 166.735 46.306 167.682 41.8515C167.682 41.8515 167.904 39.2901 169.575 37.6753C169.575 37.6753 170.688 33.3321 172.693 34.223C172.693 34.223 174.308 34.4458 174.92 37.3412C174.92 37.3412 174.363 38.956 179.041 41.1833C179.041 41.1833 184.887 42.1856 181.769 45.6935C181.769 45.6935 177.426 50.2595 182.103 54.1015C182.103 54.1015 184.498 55.3822 183.774 57.8322C183.774 57.8322 185.444 59.6141 182.938 60.505C182.938 60.505 184.776 63.2891 183.662 65.3493C183.662 65.3493 182.549 67.1311 184.887 67.4652C184.887 67.4652 186.558 65.7948 187.95 67.5766C187.95 67.5766 188.785 69.4141 186.112 70.2493C186.112 70.2493 185.277 72.6437 181.769 72.3096C181.769 72.3096 179.43 72.755 179.653 76.3187C179.653 76.3187 180.6 78.6573 170.911 84.7824L162.837 89.3483C162.837 89.3483 157.659 91.687 152.703 88.6801C152.703 88.6801 151.033 87.121 149.084 86.3415C147.58 85.7847 145.91 86.1744 144.796 87.2881L140.564 91.4085C140.564 91.4085 139.172 92.4108 140.787 93.7472C140.787 93.7472 142.235 95.0836 144.406 92.3551L147.525 89.0142C147.525 89.0142 150.197 86.7869 149.474 90.9074C149.474 90.9074 148.026 97.0325 152.814 95.4734C152.814 95.4734 153.817 94.9165 154.429 93.7472C154.429 93.7472 155.264 92.1324 156.991 94.0813C156.991 94.0813 157.325 94.5268 158.939 94.6381C158.939 94.6381 162.002 93.6358 160.721 97.4222C160.721 97.4222 160.499 99.3711 162.503 96.587C162.503 96.587 164.786 92.2438 164.508 97.7563L164.452 100.819C164.452 100.819 165.009 102.601 162.67 102.434C162.67 102.434 160.499 102.489 161.222 106.665C161.222 106.665 162.058 110.842 157.436 111.398C157.436 111.398 154.93 111.9 158.327 113.292C158.327 113.292 162.447 113.737 161.612 115.575L157.77 118.804C157.77 118.804 156.601 119.862 154.93 119.361C154.93 119.361 152.425 118.693 153.26 121.143C153.26 121.143 154.039 124.428 157.714 122.925C157.714 122.925 163.004 120.141 166.067 115.742C166.067 115.742 166.735 114.572 167.069 111.343L167.18 107.445C167.18 107.445 166.401 102.322 170.02 104.382C170.02 104.382 176.145 108.002 176.09 116.187L176.312 123.927C176.312 123.927 176.813 126.6 178.651 123.426C178.651 123.426 179.43 120.029 179.709 117.523C179.709 117.523 179.709 115.964 180.934 114.684C180.934 114.684 183.05 112.401 180.099 110.563C180.099 110.563 177.036 110.006 177.983 106.22L169.63 99.204C169.63 99.204 167.737 98.3131 169.408 95.8631C169.408 95.8631 167.18 94.5267 170.41 92.5222L178.818 86.2858C178.818 86.2858 179.263 84.1699 182.437 83.8915C182.437 83.8915 186.892 83.446 187.282 79.8267C187.282 79.8267 186.502 77.3767 190.678 74.0357L192.906 71.8084C192.906 71.8084 192.237 69.1357 195.69 66.2402C195.69 66.2402 198.919 64.1243 195.69 59.6697L191.346 51.7629C191.346 51.7629 188.841 49.2572 191.903 47.0299C191.903 47.0299 195.356 44.3572 199.031 52.0413C199.031 52.0413 200.812 55.2709 207.272 51.9299C207.272 51.9299 211.281 46.6401 218.965 50.5379C218.965 50.5379 221.192 52.8765 223.419 47.4754C223.419 47.4754 224.978 40.6821 229.433 42.3526C229.433 42.3526 231.549 44.1344 231.382 39.2901C231.382 39.2901 229.99 33.2764 239.846 30.8264C239.846 30.8264 245.414 29.4344 251.817 24.1446L275.761 6.60469C275.761 6.60469 277.765 4.26605 280.271 5.43537C280.271 5.43537 287.732 0.312617 293.078 1.42626C293.078 1.42626 296.029 1.9274 299.481 1.25921C299.481 1.25921 307.332 -1.58058 311.62 1.64898C311.62 1.64898 316.743 4.98991 311.62 5.49105C311.62 5.49105 309.949 5.76946 308.557 7.66265C308.557 7.66265 306.943 9.77858 308 10.6138C308 10.6138 308.891 12.3956 311.341 8.49789C311.341 8.49789 312.678 5.60242 314.905 9.61153C314.905 9.61153 314.682 13.565 317.132 11.2263C317.132 11.2263 318.357 5.93651 321.253 4.04332C321.253 4.04332 322.701 2.87399 324.872 5.15696L331.61 10.6138C331.61 10.6138 333.392 11.6718 329.939 13.5093C329.939 13.5093 327.99 14.9013 328.826 15.9593C328.826 15.9593 330.218 17.9082 332.668 14.5672C332.668 14.5672 333.336 11.7831 335.953 11.5604C335.953 11.5604 338.96 11.5604 340.742 14.6786C340.742 14.6786 341.187 17.0172 343.526 16.8502C343.526 16.8502 346.811 16.2934 350.43 20.4139L354.105 23.3093C354.105 23.3093 362.736 28.0423 358.003 31.3276L354.662 33.2207C354.662 33.2207 352.379 34.3344 351.321 33.1094C351.321 33.1094 350.263 30.8264 348.983 33.5548C348.983 33.5548 348.426 34.223 348.983 35.0026C348.983 35.0026 350.709 36.1719 348.983 37.898C348.983 37.898 347.201 39.6799 350.876 39.4571C350.876 39.4571 354.161 38.956 355.442 36.5617C355.442 36.5617 359.451 32.3855 361.901 35.5037L364.295 39.3458C364.295 39.3458 366.077 41.5731 363.627 43.856L357.78 48.9788C357.78 48.9788 356.388 50.3152 357.446 51.6515C357.446 51.6515 358.337 52.7095 361.01 50.5379L364.963 46.9185C364.963 46.9185 366.689 44.3572 368.36 47.4754L373.594 54.9368C373.594 54.9368 376.935 59.28 371.422 62.1754C371.422 62.1754 370.309 66.4073 367.302 65.7948C367.302 65.7948 369.808 69.4141 365.13 74.4255L361.622 78.0448C361.622 78.0448 360.119 79.1585 358.448 78.713C358.448 78.713 356.054 78.1562 357.168 83.6131C357.168 83.6131 359.841 87.121 352.992 86.2858C352.992 86.2858 349.651 85.729 350.597 90.462C350.597 90.462 351.878 94.0813 347.145 94.1927C347.145 94.1927 343.971 99.0927 338.125 95.1393C338.125 95.1393 335.507 93.1904 333.28 93.1904C333.28 93.1904 331.888 94.0256 330.385 92.4665C330.385 92.4665 327.489 95.362 323.703 95.529C323.703 95.529 320.919 96.0858 321.754 103.881C321.754 103.881 322.311 107.501 324.649 103.325C324.649 103.325 326.153 98.7586 330.218 99.3154C330.218 99.3154 335.953 99.7609 333.113 102.211C333.113 102.211 330.329 104.55 331.888 106.665C331.888 106.665 334.672 108.614 331.721 111.12C331.721 111.12 329.494 113.904 336.621 113.904C336.621 113.904 342.078 112.623 342.746 108.336C342.746 108.336 342.078 105.385 345.809 105.162C345.809 105.162 350.375 106.387 357.78 96.9211C357.78 96.9211 357.335 95.1393 362.179 93.0233C362.179 93.0233 366.077 89.9608 368.193 85.896C368.193 85.896 370.309 82.5551 372.759 80.6062C372.759 80.6062 374.93 70.8062 381.612 71.4744C381.612 71.4744 389.018 71.1959 391.635 77.2096C391.635 77.2096 394.141 82.221 399.598 84.5597C399.598 84.5597 403.106 85.5062 400.711 89.404C400.711 89.404 399.598 91.5199 401.546 91.7426C401.546 91.7426 403.941 92.4108 403.774 88.2347C403.774 88.2347 402.27 81.1074 409.787 86.0074C409.787 86.0074 414.52 90.0722 419.42 89.1813C419.42 89.1813 424.209 87.9563 425.156 90.8517C425.156 90.8517 428.998 92.8563 425.49 95.0836C425.49 95.0836 425.267 95.529 422.483 95.6404C422.483 95.6404 416.97 97.2552 410.901 103.714C410.901 103.714 409.231 105.83 406.168 105.385L403.829 105.106C403.829 105.106 401.992 104.661 402.994 107.055C402.994 107.055 403.273 108.058 405.11 107.723C405.11 107.723 407.671 106.665 408.896 110.396C408.896 110.396 410.01 112.512 407.783 114.962C407.783 114.962 406.836 118.136 404.609 118.693C404.609 118.693 401.101 120.53 405.556 121.087C405.556 121.087 407.671 121.198 409.565 119.138C409.565 119.138 410.4 117.189 411.792 116.187C411.792 116.187 413.073 115.742 412.906 113.57C412.906 113.57 412.794 110.396 414.409 108.67C414.409 108.67 413.462 105.051 417.082 104.494L420.59 104.104C420.59 104.104 422.539 100.652 424.655 102.545C424.655 102.545 426.047 104.605 428.441 102.545C428.441 102.545 430.78 99.0927 433.341 97.3665C433.341 97.3665 435.29 96.4199 434.9 93.1904C434.9 93.1904 433.063 88.0676 437.294 86.5085C437.294 86.5085 440.635 85.5062 442.863 79.938C442.863 79.938 442.974 77.5437 446.482 77.5437C446.482 77.5437 451.66 74.3698 451.66 79.1028C451.66 79.1028 450.714 81.2187 452.496 83.5574C452.496 83.5574 453.999 84.8381 452.496 88.0119C452.496 88.0119 453.052 89.3483 452.329 91.4085C452.329 91.4085 451.883 93.1347 453.164 94.4711C453.164 94.4711 455.447 96.6427 454.166 99.4268C454.166 99.4268 461.126 102.434 461.46 107C461.46 107 462.129 108.447 458.955 108.781C458.955 108.781 456.393 108.893 458.843 110.786C458.843 110.786 463.799 112.067 460.625 116.354C460.625 116.354 459.066 117.356 457.451 119.862C457.451 119.862 458.398 122.98 455.614 124.929L451.159 129.384C451.159 129.384 449.043 130.497 446.259 129.495C446.259 129.495 443.03 131.277 440.969 130.052C440.969 130.052 439.188 127.936 437.74 135.342C437.74 135.342 437.851 139.239 435.067 140.409C435.067 140.409 432.339 141.3 434.288 143.527C434.288 143.527 435.735 145.587 438.297 141.968C438.297 141.968 440.246 141.522 440.747 137.903C440.747 137.903 440.301 133.226 445.48 133.56C445.48 133.56 455.224 135.119 457.952 128.771C457.952 128.771 458.955 124.762 462.407 124.595C462.407 124.595 463.966 125.096 464.857 123.593C464.857 123.593 467.196 119.806 474.434 123.314C474.434 123.314 485.125 123.871 486.684 128.047C486.684 128.047 493.923 126.655 503.278 133.504C503.278 133.504 507.732 136.01 510.405 136.957C510.405 136.957 514.748 136.957 514.414 140.743C514.414 140.743 514.692 143.026 516.419 140.075C516.419 140.075 517.087 138.85 521.374 139.629C521.374 139.629 525.272 140.186 527.444 138.627C527.444 138.627 529.894 135.843 532.232 139.295C532.232 139.295 534.46 142.914 535.852 138.738C535.852 138.738 534.738 135.119 539.081 132.836C539.081 132.836 544.204 130.052 544.594 129.941C544.984 129.829 544.037 125.987 547.322 123.593C547.322 123.593 553.169 120.809 560.742 121.811C560.742 121.811 563.414 120.697 565.753 122.034C565.753 122.034 570.208 121.254 573.66 124.15C573.66 124.15 582.513 124.372 585.687 130.887L595.042 150.376C595.042 150.376 597.102 154.274 593.761 159.452C593.761 159.452 593.761 165.744 590.42 170.589L571.377 213.575C571.377 213.575 566.644 227.384 561.633 233.342C561.633 233.342 557.289 240.692 550.385 239.746L545.429 238.966C545.429 238.966 541.643 238.465 544.427 236.071C544.427 236.071 548.436 233.064 548.269 229.89C548.269 229.89 548.38 226.994 544.482 231.282L540.139 236.182C540.139 236.182 539.081 237.964 536.019 238.632C536.019 238.632 525.105 246.483 505.449 248.989C505.449 248.989 490.526 255.949 479.39 257.063L458.454 262.408C458.454 262.408 449.544 268.812 442.584 267.42C442.584 267.42 433.23 270.761 427.272 271.874L412.794 281.507C412.794 281.507 410.957 283.957 406.112 283.289L393.473 293.368C393.473 293.368 383.06 288.523 380.109 268.144C380.109 268.144 379.385 264.914 385.51 267.809C385.51 267.809 394.419 271.039 397.203 266.139C397.203 266.139 397.871 263.633 392.47 264.023C392.47 264.023 388.573 264.302 389.129 258.733C389.129 258.733 383.283 258.065 386.067 254.167L388.183 250.938C388.183 250.938 390.521 247.486 384.73 251.94C384.73 251.94 383.505 254.836 380.276 256.116C380.276 256.116 383.895 259.012 379.274 262.909C379.274 262.909 374.819 265.415 377.603 274.491C377.603 274.491 381.222 284.403 371.2 280.06C371.2 280.06 358.838 274.937 361.288 284.514C361.288 284.514 362.903 288.969 359.339 292.365C359.339 292.365 354.996 297.432 358.671 299.103C358.671 299.103 360.787 299.66 362.569 296.43C362.569 296.43 362.569 295.038 367.692 292.978C367.692 292.978 372.035 291.586 372.814 288.802C372.814 288.802 373.26 283.902 379.496 286.574C379.496 286.574 392.749 292.922 388.517 299.159L375.153 309.849C375.153 309.849 371.367 312.522 367.636 309.181C367.636 309.181 365.13 310.017 362.903 305.952C362.903 305.952 356.11 297.711 357.78 308.068C357.78 308.068 360.453 314.861 358.448 320.206C358.448 320.206 357.446 321.209 358.337 322.99C358.337 322.99 360.175 327.055 355.275 322.99L349.038 315.863C349.038 315.863 346.254 312.801 347.646 319.093C347.646 319.093 350.04 323.937 346.087 321.431L344.305 319.315C344.305 319.315 343.804 318.981 343.192 316.977C343.192 316.977 342.245 313.747 338.347 314.081L330.83 314.137C330.83 314.137 329.327 314.081 330.273 312.132C330.273 312.132 330.329 311.297 332.779 311.52L338.403 311.798C338.403 311.798 341.076 312.021 338.681 309.237C338.681 309.237 337.846 308.513 335.619 308.68L327.712 309.07C327.712 309.07 326.71 308.792 327.545 311.91C327.545 311.91 328.937 314.248 323.369 316.364C323.369 316.364 318.636 318.703 317.132 320.373C317.132 320.373 316.687 322.712 309.058 320.373C309.058 320.373 307.945 318.592 304.604 319.148C304.604 319.148 302.599 320.262 301.04 317.701C301.04 317.701 297.811 312.411 293.913 315.919C293.913 315.919 292.911 317.868 290.683 316.03C290.683 316.03 288.679 312.968 287.788 317.923C287.788 317.923 287.788 322.656 284.169 319.705L274.758 312.355C274.758 312.355 273.756 312.021 272.642 309.515C272.642 309.515 270.471 303.335 268.466 306.954C268.466 306.954 267.909 309.627 264.958 306.62C264.958 306.62 263.455 304.17 261.005 305.84C261.005 305.84 260.448 306.564 258.054 304.894L248.309 297.154C248.309 297.154 246.193 296.597 248.866 293.702C248.866 293.702 250.926 291.307 247.585 289.915L235.836 281.897C235.836 281.897 231.215 281.786 228.876 279.28L211.058 258.121C211.058 258.121 209.666 256.896 209.833 253.555C209.833 253.555 210.78 250.492 201.87 246.762L197.861 245.815C197.861 245.815 196.859 244.98 194.799 248.989C194.799 248.989 193.518 251.105 197.416 249.991C197.416 249.991 202.984 246.261 206.715 255.114L210.334 265.025C210.334 265.025 213.675 268.478 197.639 267.253C197.639 267.253 190.79 267.141 191.681 262.074C191.681 262.074 193.073 258.344 188.228 263.076C188.228 263.076 184.33 266.25 178.317 263.244L171.635 261.406C171.635 261.406 166.791 259.624 168.962 255.281C168.962 255.281 169.463 253.611 171.969 255.17C171.969 255.17 175.421 257.063 174.196 254C174.196 254 172.47 251.55 169.129 251.996C169.129 251.996 166.846 253.165 166.679 248.655C166.679 248.655 166.289 244.646 168.238 242.808L176.201 229.333C176.201 229.333 181.101 221.092 175.923 218.085L173.138 217.417C173.138 217.417 168.851 217.25 169.965 214.522L171.245 212.406C171.245 212.406 172.247 210.178 174.865 212.684C174.865 212.684 178.373 215.468 177.537 211.014L176.925 207.45C176.925 207.45 175.7 204.833 174.865 202.494C174.865 202.494 172.526 200.044 171.635 197.427C171.635 197.427 169.408 192.973 167.459 197.149C167.459 197.149 166.122 198.764 164.619 196.815C164.619 196.815 161.724 192.806 159.496 196.258C159.496 196.258 157.158 198.597 161.501 200.1C161.501 200.1 163.672 199.655 165.12 202.661L166.457 206.058C166.457 206.058 167.292 208.063 168.572 208.842C168.572 208.842 170.8 209.176 168.238 212.796C168.238 212.796 164.396 217.306 168.74 219.477C168.74 219.477 169.909 220.368 172.582 220.146C172.582 220.146 178.651 219.255 172.693 228.387L163.561 243.978C163.561 243.978 164.229 248.878 162.28 250.604C162.28 250.604 158.717 254.836 162.503 255.17C162.503 255.17 165.064 254.724 166.067 258.956C166.067 258.956 166.679 263.633 162.614 260.571L149.863 250.492C149.863 250.492 145.966 251.105 144.295 248.933C144.295 248.933 142.179 245.815 140.063 250.103C140.063 250.103 139.785 251.996 137.001 251.439C137.001 251.439 137.223 253.889 135.609 255.893C135.609 255.893 137.001 260.07 130.319 259.457C130.319 259.457 127.034 259.234 127.59 255.559C127.59 255.559 121.967 255.559 121.354 251.049C121.354 251.049 121.465 247.653 117.122 249.601C117.122 249.601 114.394 250.993 114.449 254.891V258.511C114.449 258.511 115.006 262.52 109.549 262.798L101.476 263.244C101.476 263.244 97.8562 264.469 98.8028 258.9L98.5244 254.167L97.5221 248.321C97.5221 248.321 95.7403 243.421 94.2925 249.434L94.8493 259.624C94.8493 259.624 96.5198 264.747 92.3436 266.306C92.3436 266.306 90.7845 268.7 88.7243 266.139L83.3231 259.179C83.3231 259.179 82.0425 257.898 82.3209 255.281L82.2095 251.829L77.0311 252.107L76.7527 261.74L83.1561 268.144C83.1561 268.144 86.497 269.981 80.2606 273.155L73.5788 277.331C73.5788 277.331 72.2981 278.835 70.7947 276.496L69.2912 272.988C69.2912 272.988 62.2196 272.208 59.881 267.531L57.3753 268.589C57.3753 268.589 56.1503 269.647 54.9253 267.754C54.9253 267.754 54.5912 267.42 55.8162 266.028C55.8162 266.028 57.5423 264.914 56.0389 263.466L52.6423 260.07C52.6423 260.07 51.2502 259.401 51.2502 262.52C51.2502 262.52 50.0252 265.415 47.6866 263.411L46.4059 259.624C46.4059 259.624 45.0695 257.842 48.3548 256.061L51.9184 253.388C51.9184 253.388 57.431 247.541 57.598 247.374C57.765 247.207 59.1571 245.759 57.9321 244.312C57.9321 244.312 56.7071 242.363 53.4218 245.759L46.8514 253.499C46.8514 253.499 46.0161 254.836 44.457 253.611L41.1161 250.715C41.1161 250.715 39.3343 249.156 41.5616 247.318L48.0764 240.414C48.0764 240.414 51.0832 238.187 48.0764 236.126C48.0764 236.126 46.3502 234.4 44.0116 237.184L37.9979 243.365C37.9979 243.365 36.7729 245.314 34.4342 242.697L23.4092 231.95C23.4092 231.95 22.8524 231.004 21.1819 232.618L17.5626 235.904C17.5626 235.904 16.616 236.683 18.3421 238.521L26.3603 247.04C26.3603 247.04 28.7547 249.267 27.1956 251.383L21.4603 263.188C21.4603 263.188 19.7898 265.861 23.799 267.197L41.6729 275.883Z" fill="#F8D392"/>
<path d="M194.854 253.054C194.854 253.054 200.144 250.27 200.033 253.499C200.033 253.499 200.311 256.395 195.133 256.784C195.133 256.784 192.46 257.063 189.509 254.112L180.989 243.81C180.989 243.81 178.985 241.416 179.876 238.131L180.989 233.788C180.989 233.788 181.268 231.895 184.776 233.008L190.233 234.623L197.249 235.904C197.249 235.904 199.699 235.959 196.358 239.579C196.358 239.579 194.242 240.414 194.52 244.701L192.404 248.543C192.404 248.599 189.898 251.55 194.854 253.054Z" fill="#F8D392"/>
<path d="M468.364 98.7029L465.97 95.9188C465.97 95.9188 463.464 96.3642 463.687 93.0233L461.126 89.6267C461.126 89.6267 459.121 89.738 457.729 87.5108L455.836 84.7823C455.836 84.7823 455.056 83.9471 456.727 83.3903C456.727 83.3903 458.119 83.0562 460.179 85.3948L462.518 88.6801C462.518 88.6801 465.246 88.6801 466.917 90.5733L479.612 103.881C479.612 103.881 481.06 105.218 479.612 106.443C479.612 106.443 478.22 107.668 476.55 105.774L471.872 100.429C471.872 100.429 470.647 99.8722 470.202 102.601C470.202 102.601 469.311 104.494 467.919 101.209C467.975 101.153 466.972 99.7608 468.364 98.7029Z" fill="#F8D392"/>
<path d="M501.274 99.9279L513.412 111.9C513.412 111.9 515.695 114.015 516.196 110.73C516.196 110.73 516.475 108.392 514.47 106.832C514.47 106.832 512.856 103.324 508.457 103.046L504.113 98.3688C504.113 98.3688 501.83 96.5312 501.274 98.0903C501.274 98.0903 500.828 99.1483 501.274 99.9279Z" fill="#F8D392"/>
<path d="M528.055 104.215C528.055 104.215 527.499 105.886 525.383 106.665C525.383 106.665 523.824 107.668 526.719 108.948C526.719 108.948 529.726 110.34 526.496 111.454H521.429C521.429 111.454 519.48 111.12 519.48 107.445L513.077 100.54C513.077 100.54 511.128 99.6495 512.019 97.1994C512.019 97.1994 513.689 94.7494 511.963 94.1926C511.963 94.1926 510.46 93.4131 509.68 95.7517C509.68 95.7517 509.625 97.4779 507.954 96.4756C507.954 96.4756 503.277 91.7983 497.597 90.4062C497.597 90.4062 495.927 90.2949 494.702 88.6244C494.702 88.6244 491.528 87.3994 493.365 86.2858L495.259 85.4505C495.259 85.4505 495.704 84.8937 497.82 84.7266C497.82 84.7266 500.716 84.4482 498.6 82.2766C498.6 82.2766 496.651 79.4369 493.421 83.3903C493.421 83.3903 492.196 86.2301 488.521 86.5085C488.521 86.5085 484.568 87.1767 484.957 83.3903C484.957 83.3903 485.737 81.3857 482.062 82.3323C482.062 82.3323 480.169 84.1142 477.83 80.6062C477.83 80.6062 475.881 79.8823 475.714 77.5437C475.714 77.5437 471.093 73.4789 474.768 72.922C474.768 72.922 477.997 73.0334 479.389 71.1402C479.389 71.1402 480.781 69.5811 482.563 69.08C482.563 69.08 484.401 65.7391 489.635 68.6902L497.597 72.4209C497.597 72.4209 506.005 71.2516 508.622 78.6573L517.364 82.5551C517.364 82.5551 523.601 86.063 533.735 81.6085C533.735 81.6085 540.862 76.7084 545.818 81.9982C545.818 81.9982 551.386 80.7175 552.89 83.3903L559.46 82.9448C559.46 82.9448 561.854 80.1607 565.418 82.5551C565.418 82.5551 570.151 80.0494 573.047 85.4505C573.047 85.4505 574.995 89.1812 572.601 92.1324C572.601 92.1324 570.819 93.4131 573.325 95.8631C573.325 95.8631 577.668 98.8142 570.263 97.979L564.694 98.2574C564.694 98.2574 561.632 101.042 557.623 98.4245L550.941 98.3131C550.941 98.3131 549.159 100.262 541.642 99.5938C541.642 99.5938 540.305 99.371 540.417 101.153C540.417 101.153 540.361 102.434 542.533 102.378L546.431 102.322C546.431 102.322 549.883 102.99 542.31 106.331L538.357 107.89C538.357 107.89 531.953 110.452 531.675 106.331C531.619 106.387 530.784 99.3154 528.055 104.215Z" fill="#F8D392"/>
<path d="M638.474 106.888L629.732 99.0927C629.732 99.0927 627.115 97.1438 631.403 92.2438C631.403 92.2438 634.855 89.9051 632.516 84.8381C632.516 84.8381 625.779 69.08 633.686 72.4209C633.686 72.4209 642.316 73.3675 643.096 73.1448C643.82 72.9778 648.831 69.9709 650.891 68.5232C652.952 67.0198 651.059 57.7765 656.293 64.7925L662.418 65.9061C662.418 65.9061 668.153 68.1334 671.16 64.7925C671.16 64.7925 674.334 59.2243 680.793 63.6789L690.092 68.3005C690.092 68.3005 701.952 70.3607 704.179 77.0426C704.179 77.0426 712.699 80.3835 715.149 87.6222L716.986 92.0767C716.986 92.0767 720.884 95.5847 715.705 99.3154L710.861 120.642C710.861 120.642 710.972 123.147 706.017 125.542C706.017 125.542 701.841 128.047 698.5 124.484C698.5 124.484 696.829 122.201 690.481 125.486L674.89 132.446C674.89 132.446 671.661 132.558 671.661 138.126C671.661 138.126 673.61 141.021 666.371 141.355C666.371 141.355 662.028 143.026 659.968 136.233L654.288 127.324C654.288 127.324 651.949 128.716 650.836 123.983L647.049 118.136C647.049 118.136 644.265 116.744 644.933 112.679L638.474 106.888Z" fill="#F8D392"/>
<path d="M623.607 91.7983C623.607 91.7983 620.545 94.6381 616.591 90.4062L613.027 86.2858C613.027 86.2858 611.301 84.8937 613.529 81.163L616.424 75.5391C616.424 75.5391 619.097 69.9709 619.264 77.321C619.264 77.321 625.946 78.2119 626.948 83.8914C626.948 83.8914 632.126 88.6244 623.607 91.7983Z" fill="#F8D392"/>
<path d="M390.131 64.4584C390.131 64.4584 384.117 67.2425 391.078 71.0289C391.078 71.0289 394.586 72.588 396.924 77.0426C396.924 77.0426 400.432 83.8915 404.553 80.2165C404.553 80.2165 409.174 75.0937 409.286 74.8153C409.397 74.5369 411.346 72.588 406.502 70.5278C406.502 70.5835 398.483 61.2845 390.131 64.4584Z" fill="#F8D392"/>
<path d="M411.736 75.8733L407.059 80.4392C407.059 80.4392 404.665 82.221 409.732 82.1096C409.732 82.1096 412.07 81.9983 413.518 83.9472C413.518 83.9472 417.137 87.5108 422.65 86.6199C422.65 86.6199 426.993 85.729 424.042 81.7199C424.042 81.7199 421.146 78.6017 416.135 77.4324C416.191 77.5437 412.683 73.7573 411.736 75.8733Z" fill="#F8D392"/>
<path d="M87.4997 297.488C87.4997 297.488 90.5065 302.499 95.852 300.718L100.251 298.991C100.251 298.991 104.817 297.321 98.9145 294.76L95.9076 293.033C95.9076 292.978 84.4928 286.797 87.4997 297.488Z" fill="#F8D392"/>
<path d="M168.906 201.715C168.906 201.715 165.454 202.327 168.906 206.114C168.906 206.114 170.298 207.227 172.025 206.114C172.025 206.114 174.53 206.281 173.639 204.165C173.639 204.165 171.468 200.546 168.906 201.715Z" fill="#F8D392"/>
<path d="M117.568 254.167C117.568 254.167 115.229 254.334 117.011 258.232C117.011 258.232 117.568 258.678 117.568 261.016C117.568 261.016 117.234 262.854 120.352 263.466C121.132 263.578 123.693 263.8 123.693 260.571C123.693 260.571 123.749 258.288 121.355 257.341C121.355 257.341 119.628 252.998 117.568 254.167Z" fill="#F8D392"/>
<path d="M143.961 253.945C143.961 253.945 140.509 256.228 146.3 259.736C146.3 259.736 149.084 260.237 149.919 262.52C149.919 262.52 151.033 265.359 152.592 261.072C152.592 261.072 153.204 257.675 150.253 256.339L147.246 254.446C147.246 254.501 146.188 252.386 143.961 253.945Z" fill="#F8D392"/>
<path d="M100.64 292.198C100.64 292.198 97.7998 290.751 100.64 288.189C100.64 288.189 103.09 286.407 101.252 284.18C101.252 284.18 98.9134 281.619 102.588 280.004H106.375L109.604 276.719C109.604 276.719 111.275 274.993 112.834 276.719C112.834 276.719 115.117 278.723 110.718 280.728C110.718 280.728 109.66 280.895 110.495 282.454C110.495 282.454 112.5 284.57 110.384 286.686C110.384 286.686 109.103 289.136 106.431 288.301C106.431 288.301 104.537 287.465 104.203 290.416C104.092 290.695 103.535 293.813 100.64 292.198Z" fill="#F8D392"/>
<path d="M121.298 307.566C121.075 307.845 119.182 310.295 116.899 308.235C116.899 308.235 114.616 309.961 113.336 308.29C113.336 308.29 111.609 310.685 108.825 308.29C108.825 308.29 105.93 305.729 110.273 306.007C110.273 306.007 111.22 304.448 113.336 304.281C113.336 304.281 116.342 304.782 113.892 302.555C113.892 302.555 113.614 301.553 111.22 301.664C111.22 301.664 107.879 301.441 109.995 298.936C109.995 298.936 111.776 297.154 113.892 300.161C113.892 300.161 116.008 302.444 117.79 299.047C117.79 299.047 118.681 296.931 117.79 295.205C117.79 295.205 115.507 293.535 118.347 290.138C118.347 290.138 119.238 289.136 121.242 289.024C121.242 289.024 122.69 287.966 122.913 287.911C123.136 287.855 125.586 284.291 127.479 289.86C127.479 289.86 130.541 293.312 130.875 297.154C130.875 297.154 133.994 298.991 133.882 301.052C133.882 301.052 141.622 300.161 136.054 304.504C136.054 304.504 135.441 304.949 134.996 307.511C134.996 307.511 135.831 312.745 130.263 306.898C130.263 306.898 128.091 308.012 126.477 306.119C126.588 306.119 124.027 303.724 121.298 307.566Z" fill="#F8D392"/>
<path d="M143.125 292.254C143.125 292.254 140.174 297.711 135.887 294.036C135.887 294.036 133.66 291.697 134.885 288.022C134.885 288.022 135.553 284.403 133.103 282.176C133.103 282.176 126.866 277.443 132.1 275.494C132.1 275.494 137.557 271.15 138.782 276.607C138.782 276.607 139.45 280.505 144.35 278.946C144.35 278.946 148.694 276.273 150.643 281.173C150.643 281.173 156.322 282.12 151.311 285.906C151.311 285.906 149.473 287.966 147.023 286.797C147.023 286.797 148.415 292.532 143.125 292.254Z" fill="#F8D392"/>
<path d="M157.324 278.222C157.324 278.278 157.268 278.278 157.268 278.333C157.157 278.5 157.101 278.723 157.101 278.946C156.823 280.338 156.99 282.175 158.271 283.066C160.331 284.458 162.057 282.176 161.89 280.171C161.834 279.002 161.278 277.053 159.997 276.719C158.939 276.44 157.825 277.331 157.324 278.222Z" fill="#F8D392"/>
<path d="M148.471 291.809C148.471 291.809 146.967 294.704 149.362 295.539C149.362 295.539 150.587 297.878 151.589 294.537C151.589 294.537 152.536 290.973 150.197 290.361C150.197 290.361 148.972 289.971 148.471 291.809Z" fill="#F8D392"/>
<path d="M155.989 303.446C155.989 303.446 150.421 299.827 154.04 296.152L156.991 292.699C156.991 292.699 158.717 290.751 161.112 291.252C161.112 291.252 166.012 284.291 170.689 292.699C170.689 292.699 170.8 295.985 176.981 295.317C176.981 295.317 180.489 293.256 183.385 301.887C183.385 301.887 186.002 306.898 178.485 304.504C178.485 304.504 176.146 303.557 173.919 306.62C173.919 306.62 168.35 311.52 163.896 305.506C163.896 305.451 160.388 305.84 155.989 303.446Z" fill="#F8D392"/>
<path d="M154.373 322.768C154.373 322.768 145.018 315.752 141.009 314.304C141.009 314.304 139.06 313.636 139.784 310.963C139.784 310.963 136.443 308.457 139.116 305.506C139.116 305.506 141.844 300.718 145.798 305.172C145.798 305.172 146.633 307.065 149.25 308.068C149.25 308.068 152.034 308.123 152.869 311.854C152.869 311.854 155.654 311.854 156.322 314.582C156.322 314.582 158.883 312.968 160.776 315.028C160.776 315.028 163.282 312.689 163.672 315.919C163.672 317.367 163.115 318.814 162.057 319.872L159.217 322.823C159.217 322.768 157.491 324.327 154.373 322.768Z" fill="#F8D392"/>
<path d="M115.285 329.784L119.183 334.795C119.183 334.795 121.243 338.136 124.918 334.795C124.918 334.795 128.983 332.011 134.384 333.013C134.384 333.013 137.335 333.848 140.899 329.784C140.899 329.784 144.407 325.44 139.061 324.828L127.145 318.814C127.145 318.814 123.749 315.084 120.074 318.814L114.171 323.436C114.171 323.492 111.387 324.772 115.285 329.784Z" fill="#F8D392"/>
<path d="M212.896 290.416C212.896 290.416 220.97 297.21 228.097 295.873C228.097 295.873 231.995 295.595 227.262 291.808C227.262 291.808 224.311 290.305 224.088 288.468C224.088 288.468 224.199 285.182 219.467 288.468C219.467 288.468 217.239 291.196 212.896 286.185C212.896 286.185 211.226 283.512 209.666 286.185C209.666 286.185 208.274 287.354 212.896 290.416Z" fill="#F8D392"/>
<path d="M292.966 321.376C292.966 321.376 296.363 323.269 298.033 320.095C298.033 320.095 298.924 318.313 297.81 317.478C297.81 317.478 296.028 316.086 295.193 318.48C295.193 318.48 291.017 319.65 292.966 321.376Z" fill="#F8D392"/>
<path d="M313.959 346.934L294.748 329.672C294.748 329.672 291.185 329.951 289.514 327.556C289.514 327.556 288.289 325.83 289.514 324.828C289.514 324.828 291.129 322.879 294.247 326.164C294.247 326.164 296.53 328.614 298.312 327.222C298.312 327.222 299.982 325.663 302.599 327.445C302.599 327.445 305.161 323.77 309.782 328.336L314.682 331.9C314.682 331.9 318.023 332.234 319.583 334.684C319.583 334.684 320.919 337.134 322.367 334.35C322.367 334.35 322.478 330.006 330.496 335.575L333.058 336.744C333.058 336.744 336.287 336.577 337.289 339.083C337.289 339.083 338.514 341.087 339.851 339.751C339.851 339.751 340.519 338.637 340.296 337.412C340.296 337.412 337.791 335.63 339.461 334.739C339.461 334.739 341.633 333.514 343.136 336.967C343.136 336.967 344.695 338.971 341.02 341.811L338.459 344.484C338.459 344.484 340.575 346.767 339.238 350.553C339.238 350.553 338.681 352.892 334.672 351.555L329.828 355.063C329.828 355.063 330.106 359.796 325.541 356.344L313.959 346.934Z" fill="#F8D392"/>
<path d="M330.663 332.401L325.819 330.452C325.819 330.452 324.427 332.011 321.476 328.893C321.476 328.893 315.072 329.06 318.859 325.997L325.095 320.986C325.095 320.986 328.325 317.088 333.169 324.271L336.398 327.111C336.398 327.111 340.964 329.06 338.347 331.844C338.347 331.844 335.842 335.241 330.663 332.401Z" fill="#F8D392"/>
<path d="M342.523 351.778V346.099C342.523 346.099 342.133 343.704 345.419 344.15L347.646 342.312C347.646 342.312 348.203 340.809 349.428 341.366C349.428 341.366 351.766 342.869 349.428 345.542L345.363 350.664C345.307 350.664 342.913 353.616 342.523 351.778Z" fill="#F8D392"/>
<path d="M224.032 368.761C224.032 368.761 233.498 368.873 236.171 376.557C236.171 376.557 236.616 380.454 241.293 380.454C241.293 380.454 243.075 380.065 244.467 380.454C244.467 380.454 248.254 381.735 245.414 376.835L236.672 366.256C236.672 366.256 235.391 364.307 233.498 364.752L228.876 359.351C228.876 359.351 228.598 358.126 225.814 357.959L221.749 354.618C221.749 354.618 217.294 352.224 216.348 358.627C216.348 358.627 213.731 369.485 224.032 368.761Z" fill="#F8D392"/>
<path d="M215.011 372.882C215.011 372.882 212.728 378.116 218.575 378.116C218.575 378.116 223.364 377.114 225.702 378.116C225.702 378.116 228.542 380.399 230.268 377.002C230.268 377.002 233.052 373.995 229.711 372.882L226.927 371.991H219.967C219.911 371.991 217.35 369.318 215.011 372.882Z" fill="#F8D392"/>
<path d="M207.217 368.65C207.217 368.65 209.555 369.596 209.834 371.545C209.834 371.545 211.003 374.775 212.729 372.158L213.843 369.875C213.843 369.875 215.291 367.202 213.62 366.088C213.62 366.088 212.618 365.309 213.119 363.805C213.119 363.805 214.734 359.852 211.114 361.355L207.829 363.082C207.829 363.082 202.985 365.532 207.217 368.65Z" fill="#F8D392"/>
<path d="M195.745 368.26C195.745 368.26 197.081 366.311 200.422 366.033C200.422 366.033 204.209 366.478 201.313 361.857C201.313 361.857 198.251 357.959 190.4 361.021L185.388 364.084C185.388 364.084 183.384 365.198 186.502 367.091C186.502 367.091 188.84 372.102 195.745 368.26Z" fill="#F8D392"/>
<path d="M196.525 376.111C196.525 376.111 194.799 380.232 199.421 381.791C199.421 381.791 201.091 382.403 202.094 381.345C202.094 381.345 207.328 382.125 205.769 379.007L200.646 372.882C200.646 372.882 198.085 369.986 196.692 371.991C196.748 372.102 194.187 373.438 196.525 376.111Z" fill="#F8D392"/>
<path d="M213.953 390.811C213.953 390.811 212.283 393.484 214.287 396.825C214.287 396.825 215.902 399.164 214.287 401.781C214.287 401.781 210.612 406.124 213.285 411.915C213.285 411.915 214.009 413.307 214.065 414.421C214.065 414.421 214.287 419.933 218.296 413.752C218.296 413.752 219.132 411.525 220.969 412.138C220.969 412.138 225.981 413.53 221.971 407.627L219.466 404.732C219.466 404.732 221.359 403.841 218.965 402.17C218.965 402.17 220.301 401.057 217.517 399.386C217.517 399.386 219.41 397.437 216.904 396.324C216.904 396.324 214.9 395.322 216.069 391.981C216.069 391.981 216.737 390.644 215.735 389.92C215.679 389.865 214.51 389.197 213.953 390.811Z" fill="#F8D392"/>
<path d="M155.431 413.14C155.431 413.14 145.854 414.699 139.116 411.302C139.116 411.302 131.655 410.3 137.891 406.959C139.116 406.291 143.014 403.284 143.014 403.284C143.014 403.284 141.343 398.996 147.58 399.665C147.58 399.665 151.867 400.667 154.93 397.159C154.93 397.159 158.716 392.871 163.282 397.159C163.282 397.159 168.85 397.048 169.519 402.727C169.519 402.727 169.351 405.511 172.414 407.46C172.414 407.46 177.592 411.191 172.414 413.14C172.414 413.14 169.908 412.36 162.224 412.75C160.275 412.75 159.997 412.305 155.431 413.14Z" fill="#F8D392"/>
<path d="M152.09 442.707C152.09 442.707 152.257 452.786 156.935 447.162C157.38 446.605 158.661 443.153 161.723 442.484C161.723 442.484 166.846 444.099 167.069 439.923C167.069 439.923 166.233 436.582 169.574 435.914C170.02 435.802 173.027 435.858 171.523 432.907C171.523 432.907 170.02 430.958 166.233 432.294C166.233 432.294 159.663 428.285 159.273 434.856C159.273 434.856 159.774 437.696 156.044 438.085C155.988 438.03 148.694 436.137 152.09 442.707Z" fill="#F8D392"/>
<path d="M168.127 459.022C168.127 459.022 170.8 458.911 172.136 464.367C172.136 464.367 174.029 471.495 179.709 470.047C179.709 470.047 185.389 470.27 184.108 464.924C184.108 464.924 183.997 461.138 186.447 459.579C186.447 459.579 190.957 455.625 185.834 455.792L180.21 456.461L172.971 454.178C173.027 454.233 162.893 457.407 168.127 459.022Z" fill="#F8D392"/>
<path d="M333.447 369.318L336.621 372.937C336.621 372.937 337.901 374.441 339.294 373.271C339.294 373.271 341.409 372.046 339.294 370.599L336.064 367.592C336.064 367.592 335.229 366.311 333.837 367.369C333.837 367.369 332.5 368.204 333.447 369.318Z" fill="#F8D392"/>
<path d="M357.223 378.06C357.223 378.06 359.172 379.174 359.84 382.515C359.84 382.515 359.673 383.628 361.511 385.132L364.685 387.47C364.685 387.47 365.075 392.092 367.58 389.586L368.527 388.027C368.527 388.027 373.093 387.192 368.527 383.573L360.342 377.281C360.286 377.225 355.33 375.833 357.223 378.06Z" fill="#F8D392"/>
<path d="M354.662 371.434C354.662 371.434 352.769 373.661 356.778 374.663C356.778 374.663 358.782 376.056 360.453 373.995C360.453 373.995 360.898 371.879 362.847 372.325C362.847 372.325 364.184 374.775 366.3 372.269L367.525 370.376C367.525 370.376 369.473 367.87 365.409 368.761L362.792 370.376C362.792 370.376 362.123 368.093 358.838 369.596L354.662 371.434Z" fill="#F8D392"/>
<path d="M367.023 379.953C367.023 379.953 369.139 382.125 369.417 382.236C369.751 382.348 369.863 383.071 372.647 382.793C372.647 382.793 376.266 382.96 375.319 380.621L374.039 378.728C374.039 378.728 373.092 377.225 371.255 379.731L369.473 379.118C369.473 379.118 365.241 378.171 367.023 379.953Z" fill="#F8D392"/>
<path d="M679.957 112.735C679.957 112.735 680.626 114.517 687.641 112.735C687.641 112.735 695.381 112.178 696.328 108.614C696.328 108.614 697.33 105.385 693.321 108.002L690.815 108.447C690.815 108.447 687.92 107.556 685.191 109.505C685.191 109.505 683.465 110.34 683.243 110.285C682.964 110.285 677.953 110.508 679.957 112.735Z" fill="#F8D392"/>
<path d="M656.57 86.1745C656.57 86.1745 653.062 88.6801 657.572 91.4643L659.521 92.7449C659.521 92.7449 662.194 93.1347 661.47 94.6938C661.47 94.6938 660.078 96.9211 657.183 94.6938L653.396 93.3018C653.396 93.3018 650.612 94.0813 648.496 90.9074C648.496 90.9074 645.434 87.8449 647.271 83.1119C647.271 83.1119 648.274 80.2165 650.167 84.1142C650.167 84.1142 650.445 87.5108 653.619 83.1119C653.619 83.1119 651.781 78.9358 654.176 78.1562C654.176 78.1562 656.013 76.9312 656.57 80.3835C656.57 80.3835 664.199 78.8801 665.089 82.1653C665.089 82.1653 666.314 84.8381 658.686 84.5597C658.742 84.6154 658.797 86.7313 656.57 86.1745Z" fill="#F8D392"/>
<path d="M472.931 202.828C472.931 202.828 472.764 206.169 468.477 203.497L464.3 200.434C464.3 200.434 460.96 199.487 463.354 195.534C463.354 195.534 466.138 190.077 472.43 193.975L474.268 195.256C474.268 195.256 478.054 193.808 478.889 198.541L480.671 200.88C480.671 200.88 483.622 201.882 481.952 204.499C481.952 204.499 479.557 207.45 476.272 203.719C476.384 203.775 473.21 199.655 472.931 202.828Z" fill="#F8D392"/>
<path d="M310.785 197.594C310.785 197.594 307.166 202.216 306.275 197.594C306.275 197.594 303.825 197.817 302.823 195.256C302.823 195.256 298.591 194.309 299.203 191.191C299.203 191.191 299.816 188.852 301.486 190.857L303.602 192.639C303.602 192.639 305.551 193.363 304.437 190.857C304.437 190.857 303.658 189.743 305.384 189.353C305.384 189.353 306.943 189.075 307.277 191.692C307.277 191.692 306.776 193.585 310.785 192.305C310.785 192.305 312.845 190.022 315.574 191.636C315.574 191.636 319.583 190.077 321.866 192.806C321.866 192.806 323.982 194.532 323.481 190.523L323.202 188.908C323.202 188.908 319.861 187.627 321.643 185.957C321.643 185.957 325.04 183.674 325.485 187.794L326.265 191.859C326.265 191.859 326.933 194.198 329.16 192.861C329.16 192.861 330.329 190.523 332.056 192.082C332.056 192.082 335.452 191.636 333.837 194.699L330.775 198.151C330.775 198.151 329.828 200.49 326.042 198.597C326.042 198.597 322.868 198.875 320.362 196.425C320.307 196.369 313.235 192.806 310.785 197.594Z" fill="#F8D392"/>
<path d="M271.473 173.206C271.473 173.206 272.141 176.714 268.522 175.489C268.522 175.489 266.462 176.547 265.348 174.486C265.348 174.486 261.673 172.537 266.963 171.424C266.963 171.424 266.963 169.475 268.522 168.751L268.244 167.693C268.244 167.693 264.457 166.412 266.406 165.076L268.522 163.74C268.522 163.74 269.747 162.849 270.471 166.579L272.253 166.969L272.475 164.408C272.475 164.408 272.03 163.183 275.649 163.684C275.649 163.684 276.652 162.125 277.988 161.29C277.988 161.29 278.99 161.123 277.988 159.563C277.988 159.563 277.097 157.893 276.095 159.563L274.257 161.512C274.257 161.512 271.028 163.406 271.083 161.29L271.417 158.784C271.417 158.784 271.418 156.278 269.413 158.784L268.355 159.898C268.355 159.898 266.796 161.011 267.353 158.561C267.353 158.561 268.411 156.501 266.406 157.503L264.569 159.842C264.569 159.842 264.067 160.232 264.569 161.958C264.569 161.958 262.954 163.238 263.622 164.575C263.622 164.575 264.402 165.911 262.842 166.746C262.842 166.746 261.116 167.415 261.228 164.909C261.228 164.909 260.949 161.791 258.778 166.301L258.499 168.417C258.499 168.417 258.109 170.923 256.272 169.252C256.272 169.252 255.047 168.473 256.829 166.301C256.829 166.301 258.054 165.02 256.55 164.352C256.55 164.352 255.158 163.74 253.989 168.027C253.989 168.027 253.321 168.862 253.989 171.591C253.989 171.591 254.267 173.985 251.706 171.591C251.706 171.591 248.978 169.531 250.871 168.807C250.871 168.807 253.321 167.582 253.154 164.798C253.154 164.798 252.374 162.348 255.158 161.735C255.158 161.735 258.833 162.682 260.615 160.51L262.174 157.837C262.174 157.837 262.842 155.554 260.559 155.109C260.559 155.109 259.112 154.886 259.056 156.612V158.004C259.056 158.004 258.444 159.508 256.717 157.893L256.94 152.77C256.94 152.77 256.829 151.434 259 150.71C259 150.71 259.891 147.369 261.784 150.71C261.784 150.71 262.62 154.329 265.014 150.933C265.014 150.933 264.791 148.705 266.35 147.703C266.35 147.703 264.457 144.585 266.629 143.304C266.629 143.304 267.52 142.859 267.854 144.362C267.854 144.362 268.633 145.699 269.469 143.249C269.469 143.249 271.028 139.796 271.417 144.696C271.417 144.696 271.863 146.367 269.97 149.151C269.97 149.151 268.244 150.821 270.527 151.1H272.698C272.698 151.1 273.868 150.877 273.756 148.26C273.756 148.26 273.422 144.418 274.981 145.977L276.318 148.204C276.318 148.204 277.765 149.207 275.872 150.71C275.872 150.71 273.868 152.826 275.983 153.773C275.983 153.773 276.819 154.552 277.765 152.882C277.765 152.882 278.211 155.165 281.051 154.218C281.051 154.218 281.162 156.334 284.391 154.886C284.391 154.886 287.454 157.002 289.96 153.049C289.96 153.049 291.24 150.654 288.122 150.098C288.122 150.098 291.741 149.819 292.187 147.592C292.187 147.592 294.024 144.696 295.528 148.427C295.528 148.427 294.804 152.603 297.087 154.274L296.085 158.45L295.639 163.74C295.639 163.74 293.69 164.965 293.523 160.566C293.523 160.566 293.523 157.67 291.129 163.74C291.129 163.74 290.294 161.29 287.51 162.459C287.51 162.459 285.394 162.793 288.512 166.078C288.512 166.078 289.459 167.415 287.176 167.804C287.176 167.804 286.229 166.245 284.893 168.194C284.893 168.194 285.115 171.758 282.554 170.032C282.554 170.032 280.104 169.698 281.329 167.415C281.329 167.415 283.501 164.464 283.668 164.241C283.779 164.074 285.115 162.793 284.002 161.902C284.002 161.902 282.999 160.788 281.385 163.294L277.932 168.25C277.932 168.25 276.095 168.918 275.816 170.644C275.872 170.477 271.195 168.64 271.473 173.206Z" fill="#F8D392"/>
<path d="M298.033 148.483C298.033 148.483 297.531 152.882 302.431 152.882C302.431 152.882 304.603 153.104 304.881 154.775C304.881 154.775 305.55 157.058 308.167 155.276C308.167 155.276 310.283 153.828 310.672 156.668C310.672 156.668 310.728 158.06 309.503 158.951L306.441 161.624C306.441 161.624 304.77 162.515 307.554 163.795C307.554 163.795 309.28 165.41 311.452 162.292L313.624 159.675C313.624 159.675 315.238 158.06 314.96 161.011C314.96 161.011 314.904 163.795 317.131 159.898L319.136 156.334C319.136 156.334 321.085 155.276 318.245 153.773C318.245 153.773 316.352 153.661 317.131 151.044C317.131 151.044 318.356 144.641 315.016 148.817L312.844 151.712C312.844 151.712 312.343 153.049 310.617 150.933C310.617 150.933 308.445 149.429 309.392 147.369C309.392 147.369 310.45 144.14 306.83 145.086C306.83 145.086 305.216 145.365 305.16 148.483C305.16 148.483 304.826 150.71 301.93 147.87C301.93 147.926 297.921 145.532 298.033 148.483Z" fill="#F8D392"/>
<path d="M346.532 107.835C346.532 107.835 344.026 109.171 345.919 111.231C345.919 111.231 346.977 113.013 348.815 111.565L349.817 110.507C349.817 110.507 351.042 107.723 346.532 107.835Z" fill="#F8D392"/>
<path d="M259.223 118.303C259.223 118.303 262.007 119.695 260.448 122.925L259.223 124.985C259.223 124.985 257.887 127.602 257.33 123.927C257.33 123.927 255.66 122.98 256.161 121.811C256.161 121.811 257.163 119.584 254.602 122.089C254.602 122.089 253.432 122.98 253.822 125.597C253.822 125.597 253.711 126.655 252.82 127.936C252.82 127.936 252.374 131.5 250.203 132.112C250.203 132.112 247.53 132.725 249.757 130.442C249.757 130.442 250.815 129.941 250.426 127.491C250.426 127.491 249.479 126.544 250.871 124.595C250.871 124.595 252.152 122.646 250.147 122.089C250.147 122.089 245.47 123.092 245.86 120.809C245.86 120.809 245.303 119.862 249.201 119.639L252.43 118.86C252.43 118.86 254.379 117.746 254.156 116.131C254.156 116.131 254.156 114.35 251.038 116.131C251.038 116.131 248.978 117.858 244.579 116.243C244.579 116.243 242.853 115.463 245.748 113.96C245.748 113.96 248.644 112.067 254.546 112.234C254.546 112.234 256.551 111.176 258.221 110.786L256.885 108.893C256.885 108.893 253.21 108.28 255.214 106.61C255.214 106.61 257.776 104.995 260.114 108.002L262.787 110.34C262.787 110.34 264.569 111.677 264.569 108.893C264.569 108.893 264.346 108.058 266.74 107.835C266.74 107.835 264.792 106.61 265.627 104.828C265.627 104.828 267.074 101.932 268.912 106.276C268.912 106.276 269.58 109.505 273.255 107.111L275.594 104.828C275.594 104.828 278.044 102.601 274.703 102.601C274.703 102.601 271.863 103.38 271.919 100.373C271.919 100.373 272.531 97.5336 269.413 99.8166C269.413 99.8166 266.184 102.378 265.627 99.3711C265.627 99.3711 265.849 97.4779 265.404 97.0325C265.404 97.0325 264.569 95.8631 262.397 98.5915C262.397 98.5915 259.056 101.988 257.107 100.151C257.107 100.151 254.602 97.5893 257.386 97.1438C257.386 97.1438 261.339 97.0881 260.949 94.4154C260.949 94.4154 260.17 92.0767 262.174 91.4086C262.174 91.4086 263.344 90.2392 263.956 92.8006C263.956 92.8006 265.682 95.0836 265.627 92.2995C265.627 92.2995 265.126 89.0699 267.019 90.4063C267.019 90.4063 268.132 91.4642 269.135 89.6267C269.135 89.6267 272.197 86.954 271.863 90.629C271.863 90.629 269.692 96.8097 274.035 96.1415C274.035 96.1415 275.594 96.1415 276.429 94.137C276.429 94.137 278.267 91.0745 278.823 94.9722C278.823 94.9722 278.211 98.5359 280.215 97.9791C280.215 97.9791 281.663 97.1438 281.942 98.87C281.942 98.87 283.334 101.32 284.113 98.2575C284.113 98.2575 284.781 95.529 283.111 94.8052C283.111 94.8052 280.215 93.4688 281.162 90.2949C281.162 90.2949 283.334 85.3392 285.338 89.1813C285.338 89.1813 286.006 90.8517 286.452 92.8006L290.127 99.5382C290.127 99.5382 292.243 103.213 290.127 105.663L284.893 111.565C284.893 111.565 284.614 113.57 281.886 113.459C281.886 113.459 278.545 117.245 276.986 114.016C276.986 114.016 272.977 114.684 272.364 117.802C272.364 117.802 273.589 123.871 270.026 123.927C270.026 123.927 267.91 123.092 270.582 117.579C270.582 117.579 274.48 111.009 269.692 113.347L262.174 116.744C262.174 116.633 257.609 116.354 259.223 118.303Z" fill="#F8D392"/>
<path d="M154.485 47.531C154.485 47.531 149.418 50.5378 154.485 52.0412C154.485 52.0412 156.935 51.7072 157.047 54.6026C157.047 54.6026 158.16 57.3867 159.497 53.3776C159.497 53.3776 159.441 51.7072 160.722 50.5378C160.722 50.5378 163.562 45.8605 159.553 44.9139C159.553 44.9139 156.156 43.8003 154.485 47.531Z" fill="#F8D392"/>
<path d="M126.867 55.6049C126.867 55.6049 124.695 59.3356 127.758 58.0549C127.758 58.0549 131.656 56.7186 130.264 54.1572C130.264 54.1572 128.705 51.4288 126.867 55.6049Z" fill="#F8D392"/>
<path d="M96.5201 137.402C96.5201 137.402 96.6315 141.801 100.863 140.632C100.863 140.632 103.647 138.961 101.309 137.068C101.253 137.068 96.019 133.282 96.5201 137.402Z" fill="#F8D392"/>
<path d="M87.1655 120.419C87.1655 120.419 83.8802 124.539 87.1655 124.651C87.1655 124.651 88.2234 124.985 89.3371 122.535C89.3371 122.535 90.8962 124.038 92.1212 121.811C92.1212 121.811 95.4621 121.254 93.736 118.47C93.736 118.47 91.62 116.688 90.3394 119.25C90.3394 119.25 88.8916 120.475 89.17 117.857C89.17 117.857 89.3928 116.465 88.2791 115.575C88.2791 115.575 86.553 114.962 88.9473 114.238C88.9473 114.238 92.6223 112.846 91.62 110.285C91.62 110.285 91.8985 107.445 88.5575 107.389C88.5575 107.389 85.8848 107.222 87.945 104.772C87.945 104.772 88.8916 103.547 90.7291 104.772C90.7291 104.772 92.2882 106.443 93.1235 103.213C93.1235 103.213 93.7916 99.204 97.0212 100.707C97.0212 100.707 100.808 101.71 96.5201 97.3665C96.5201 97.3665 94.1257 95.7517 94.0701 94.2483C94.0701 94.2483 93.1791 90.0721 90.6178 92.021C90.6178 92.021 88.8359 92.4664 91.5087 95.3619C91.5087 95.3619 94.6269 99.2597 89.3371 98.4801C89.3371 98.4801 87.3882 98.5915 85.7734 95.9744C85.7734 95.9744 81.4302 93.6915 80.4836 98.7028C80.4836 98.7028 75.695 101.431 79.6484 107.111C79.6484 107.111 79.37 109.672 82.0984 110.953C82.0984 110.953 84.27 112.902 82.4325 114.962C82.4325 114.962 79.3143 117.635 81.4302 120.976C81.4302 120.976 82.3211 123.426 84.1587 120.14C84.1587 120.14 83.9359 117.078 85.495 117.69C85.4393 117.635 88.0564 119.138 87.1655 120.419Z" fill="#F8D392"/>
<path d="M95.6289 118.637C95.6289 118.637 94.9607 120.419 96.9653 120.753C96.9653 120.753 99.805 121.922 99.6937 117.858C99.6937 117.858 100.362 114.628 98.0232 116.688C97.9675 116.577 95.4062 116.41 95.6289 118.637Z" fill="#F8D392"/>
<path d="M93.6238 109.951C93.6238 109.951 94.7374 111.955 96.6306 109.951C96.6306 109.951 99.3033 110.507 99.8045 108.503C99.8045 108.503 100.807 105.997 96.742 106.22C96.742 106.22 94.0135 103.937 93.234 107.278C93.1783 107.278 92.6215 108.225 93.6238 109.951Z" fill="#F8D392"/>
<path d="M96.0746 76.43C96.0746 76.43 98.1905 75.4278 99.8053 79.4926C99.8053 79.4926 101.03 82.6664 104.705 81.7198C104.705 81.7198 109.16 80.0494 104.705 77.5437C104.705 77.5437 99.6939 76.2073 99.6939 73.2005C99.6939 73.2005 100.306 70.7505 101.921 74.3698C101.921 74.3698 103.926 76.6528 103.703 73.3118C103.703 73.3118 103.091 67.4095 105.095 69.7482C105.095 69.7482 107.991 72.9778 109.661 71.1402C109.661 71.1402 114.45 74.5925 116.009 72.4766C116.009 72.4766 118.236 70.0266 112.445 67.4095C112.445 67.4095 114.227 63.5118 109.772 65.2379C109.772 65.2379 106.933 64.0686 105.039 65.7948C105.039 65.7948 101.698 62.3982 98.4689 63.9016C98.4689 63.9016 96.2416 64.9039 97.8007 67.2982L95.4064 70.305C95.4064 70.305 92.0098 67.5766 90.7291 70.0266C90.7291 70.0266 89.17 71.9198 93.1791 73.4232C93.1791 73.4232 91.2859 79.1585 96.0746 76.43Z" fill="#F8D392"/>
<path d="M161.946 33.7776C162.726 33.8332 163.784 33.4992 164.508 33.2764C165.566 32.8867 166.457 32.2742 166.735 31.1048C166.791 30.7707 166.791 30.3253 166.568 30.1025C166.234 29.7128 165.51 29.6571 165.064 29.7128C164.174 29.7685 163.283 30.2696 162.559 30.8264C162.559 30.8264 161.389 31.7173 161.167 32.998C161.111 33.4435 161.445 33.7219 161.891 33.7776H161.946Z" fill="#F8D392"/>
</svg>
